<?xml version="1.0" encoding="UTF-8"?>
<svg id="Layer_2" data-name="Layer 2" xmlns="http://www.w3.org/2000/svg" viewBox="0 0 2332.64 811.82">
  <defs>
    <style>
      .cls-1 {
        fill: #fdfeff;
      }

      .cls-2 {
        fill: #daedfe;
      }
    </style>
  </defs>
  <g id="Layer_1-2" data-name="Layer 1">
    <g>
      <circle class="cls-2" cx="2099.21" cy="640.24" r="171.59"/>
      <g>
        <circle class="cls-2" cx="581.6" cy="535.36" r="149.76"/>
        <circle class="cls-2" cx="822.46" cy="478.77" r="157.34"/>
        <circle class="cls-2" cx="1063.53" cy="406.41" r="190.73"/>
        <circle class="cls-2" cx="1300.15" cy="392.8" r="108"/>
        <circle class="cls-2" cx="1501.47" cy="287.97" r="201.31"/>
        <circle class="cls-2" cx="1830.76" cy="247.87" r="230.91"/>
        <circle class="cls-2" cx="2028.52" cy="223.48" r="223.48"/>
        <circle class="cls-2" cx="2161.28" cy="456.16" r="171.36"/>
      </g>
    </g>
    <g>
      <circle class="cls-1" cx="1093.19" cy="543.93" r="178.12"/>
      <circle class="cls-1" cx="1396" cy="506.33" r="203.85"/>
      <circle class="cls-1" cx="1691.88" cy="410.34" r="230.57"/>
      <circle class="cls-1" cx="1936.31" cy="446.95" r="193.96"/>
      <circle class="cls-1" cx="2102.55" cy="644.95" r="166.25"/>
      <path class="cls-1" d="m962.57,761.65c0,1.82-.04,3.6-.08,5.42-.36,15.12-2.3,29.88-5.58,44.13h-424.09c-3.68-15.91-5.66-32.5-5.66-49.56,0-7.72.4-15.32,1.19-22.8,5.22-50.27,27.55-95.39,61.04-129.55,39.46-40.33,94.56-65.35,155.48-65.35,17.77,0,35.07,2.14,51.62,6.17,88.15,21.41,155.32,96.5,164.9,188.73.79,7.48,1.19,15.08,1.19,22.8Z"/>
      <circle class="cls-1" cx="922.51" cy="625.63" r="146.93"/>
      <path class="cls-1" d="m602.37,680.58c0,20.27-2.97,39.82-8.55,58.27-8.11,26.92-21.69,51.5-39.46,72.36H246.64c-17.77-20.86-31.35-45.44-39.46-72.36-5.58-18.45-8.55-38-8.55-58.27,0-15,1.62-29.61,4.75-43.66,19.95-90.53,100.62-158.21,197.12-158.21,86.41,0,160.11,54.27,188.89,130.58,8.39,22.17,12.98,46.19,12.98,71.29Z"/>
      <path class="cls-1" d="m293.62,772.45c0,13.42-1.78,26.4-5.19,38.75H5.19c-3.4-12.35-5.19-25.33-5.19-38.75,0-11.56,1.35-22.84,3.88-33.61,15.16-64.92,73.43-113.21,142.93-113.21,20.07,0,39.15,4.04,56.56,11.28,42.99,17.97,75.56,55.73,86.37,101.93,2.53,10.77,3.88,22.05,3.88,33.61Z"/>
      <path class="cls-1" d="m2102.55,738.85v72.36H5.19c-3.4-12.35-5.19-25.33-5.19-38.75,0-11.56,1.35-22.84,3.88-33.61h2098.67Z"/>
      <rect class="cls-1" x="935.18" y="597.14" width="1065.88" height="169.1"/>
    </g>
  </g>
</svg>