<?xml version="1.0" encoding="UTF-8"?>
<svg id="Layer_2" data-name="Layer 2" xmlns="http://www.w3.org/2000/svg" viewBox="0 0 992.37 404.15">
  <defs>
    <style>
      .cls-1 {
        fill: #fff;
        stroke: #000;
        stroke-miterlimit: 10;
      }
    </style>
  </defs>
  <g id="Layer_1-2" data-name="Layer 1">
    <path class="cls-1" d="m234.78,259.21c-32.42,0-61.78,13.13-82.99,34.4-21.27,21.21-34.4,50.58-34.4,82.99,0-32.42-13.13-61.78-34.4-82.99-21.21-21.27-50.58-34.4-82.99-34.4,32.42,0,61.78-13.12,82.99-34.4,21.27-21.21,34.4-50.58,34.4-82.99,0,64.83,52.56,117.39,117.39,117.39Z"/>
    <path class="cls-1" d="m792.03,43.2c-11.93,0-22.73,4.83-30.54,12.66-7.83,7.81-12.66,18.61-12.66,30.54,0-11.93-4.83-22.73-12.66-30.54-7.81-7.83-18.61-12.66-30.54-12.66,11.93,0,22.73-4.83,30.54-12.66,7.83-7.81,12.66-18.61,12.66-30.54,0,23.86,19.34,43.2,43.2,43.2Z"/>
    <path class="cls-1" d="m488.83,141.19c-17.67,0-33.68,7.16-45.25,18.75-11.6,11.57-18.75,27.58-18.75,45.25,0-17.67-7.16-33.68-18.75-45.25-11.57-11.6-27.58-18.75-45.25-18.75,17.67,0,33.68-7.16,45.25-18.75,11.6-11.57,18.75-27.58,18.75-45.25,0,35.35,28.66,64.01,64.01,64.01Z"/>
    <path class="cls-1" d="m992.37,229.77c-27.66,0-52.72,11.2-70.82,29.35-18.15,18.1-29.35,43.16-29.35,70.82,0-27.66-11.2-52.72-29.35-70.82-18.1-18.15-43.16-29.35-70.82-29.35,27.66,0,52.72-11.2,70.82-29.35,18.15-18.1,29.35-43.16,29.35-70.82,0,55.33,44.85,100.17,100.17,100.17Z"/>
    <path class="cls-1" d="m705.63,243.55c-3.8,0-7.25,1.54-9.74,4.04-2.5,2.49-4.04,5.93-4.04,9.74,0-3.8-1.54-7.25-4.04-9.74-2.49-2.5-5.93-4.04-9.74-4.04,3.8,0,7.25-1.54,9.74-4.04,2.5-2.49,4.04-5.93,4.04-9.74,0,7.61,6.17,13.77,13.77,13.77Z"/>
    <path class="cls-1" d="m678.08,141.82c-3.8,0-7.25,1.54-9.74,4.04-2.5,2.49-4.04,5.93-4.04,9.74,0-3.8-1.54-7.25-4.04-9.74-2.49-2.5-5.93-4.04-9.74-4.04,3.8,0,7.25-1.54,9.74-4.04,2.5-2.49,4.04-5.93,4.04-9.74,0,7.61,6.17,13.77,13.77,13.77Z"/>
    <path class="cls-1" d="m317.92,309.16c-3.8,0-7.25,1.54-9.74,4.04-2.5,2.49-4.04,5.93-4.04,9.74,0-3.8-1.54-7.25-4.04-9.74-2.49-2.5-5.93-4.04-9.74-4.04,3.8,0,7.25-1.54,9.74-4.04,2.5-2.49,4.04-5.93,4.04-9.74,0,7.61,6.17,13.77,13.77,13.77Z"/>
    <path class="cls-1" d="m304.15,141.19c-3.8,0-7.25,1.54-9.74,4.04-2.5,2.49-4.04,5.93-4.04,9.74,0-3.8-1.54-7.25-4.04-9.74-2.49-2.5-5.93-4.04-9.74-4.04,3.8,0,7.25-1.54,9.74-4.04,2.5-2.49,4.04-5.93,4.04-9.74,0,7.61,6.17,13.77,13.77,13.77Z"/>
    <path class="cls-1" d="m542.56,68.85c-3.8,0-7.25,1.54-9.74,4.04-2.5,2.49-4.04,5.93-4.04,9.74,0-3.8-1.54-7.25-4.04-9.74-2.49-2.5-5.93-4.04-9.74-4.04,3.8,0,7.25-1.54,9.74-4.04,2.5-2.49,4.04-5.93,4.04-9.74,0,7.61,6.17,13.77,13.77,13.77Z"/>
    <path class="cls-1" d="m805.8,159.04c-3.8,0-7.25,1.54-9.74,4.04-2.5,2.49-4.04,5.93-4.04,9.74,0-3.8-1.54-7.25-4.04-9.74-2.49-2.5-5.93-4.04-9.74-4.04,3.8,0,7.25-1.54,9.74-4.04,2.5-2.49,4.04-5.93,4.04-9.74,0,7.61,6.17,13.77,13.77,13.77Z"/>
    <path class="cls-1" d="m438.6,390.38c-3.8,0-7.25,1.54-9.74,4.04-2.5,2.49-4.04,5.93-4.04,9.74,0-3.8-1.54-7.25-4.04-9.74-2.49-2.5-5.93-4.04-9.74-4.04,3.8,0,7.25-1.54,9.74-4.04,2.5-2.49,4.04-5.93,4.04-9.74,0,7.61,6.17,13.77,13.77,13.77Z"/>
    <path class="cls-1" d="m584.67,243.55c-19.23,0-36.65,7.79-49.24,20.41-12.62,12.59-20.41,30.01-20.41,49.24,0-19.23-7.79-36.65-20.41-49.24-12.59-12.62-30.01-20.41-49.24-20.41,19.23,0,36.65-7.79,49.24-20.41,12.62-12.59,20.41-30.01,20.41-49.24,0,38.47,31.18,69.65,69.65,69.65Z"/>
    <path class="cls-1" d="m735.05,322.94c-11.93,0-22.73,4.83-30.54,12.66-7.83,7.81-12.66,18.61-12.66,30.54,0-11.93-4.83-22.73-12.66-30.54-7.81-7.83-18.61-12.66-30.54-12.66,11.93,0,22.73-4.83,30.54-12.66,7.83-7.81,12.66-18.61,12.66-30.54,0,23.86,19.34,43.2,43.2,43.2Z"/>
  </g>
</svg>